HIERARCHY
ROOT root
{
	OFFSET 0.000000 0.000000 0.000000
	CHANNELS 6 Xposition Yposition Zposition Zrotation Yrotation Xrotation
	JOINT lhip
	{
		OFFSET 0.058581 -0.082280 -0.017664
		CHANNELS 3 Zrotation Yrotation Xrotation
		JOINT lknee
		{
			OFFSET 0.043451 -0.386469 0.008037
			CHANNELS 3 Zrotation Yrotation Xrotation
			JOINT lankle
			{
				OFFSET -0.014790 -0.426874 -0.037428
				CHANNELS 3 Zrotation Yrotation Xrotation
				JOINT ltoe
				{
					OFFSET 0.041054 -0.060286 0.122042
					CHANNELS 3 Zrotation Yrotation Xrotation
					End Site
					{
						OFFSET 0.000000 0.000000 0.000000
					}
				}
			}
		}
	}
	JOINT rhip
	{
		OFFSET -0.060310 -0.090513 -0.013543
		CHANNELS 3 Zrotation Yrotation Xrotation
		JOINT rknee
		{
			OFFSET -0.043257 -0.383688 -0.004843
			CHANNELS 3 Zrotation Yrotation Xrotation
			JOINT rankle
			{
				OFFSET 0.019056 -0.420046 -0.034562
				CHANNELS 3 Zrotation Yrotation Xrotation
				JOINT rtoe
				{
					OFFSET -0.034840 -0.062106 0.130323
					CHANNELS 3 Zrotation Yrotation Xrotation
					End Site
					{
						OFFSET 0.000000 0.000000 0.000000
					}
				}
			}
		}
	}
	JOINT lowerback
	{
		OFFSET 0.004439 0.124404 -0.038385
		CHANNELS 3 Zrotation Yrotation Xrotation
		JOINT upperback
		{
			OFFSET 0.004488 0.137956 0.026820
			CHANNELS 3 Zrotation Yrotation Xrotation
			JOINT chest
			{
				OFFSET -0.002265 0.056032 0.002855
				CHANNELS 3 Zrotation Yrotation Xrotation
				JOINT lowerneck
				{
					OFFSET -0.013390 0.211636 -0.033468
					CHANNELS 3 Zrotation Yrotation Xrotation
					JOINT upperneck
					{
						OFFSET 0.010113 0.088937 0.050410
						CHANNELS 3 Zrotation Yrotation Xrotation
						End Site
						{
							OFFSET 0.000000 0.000000 0.000000
						}
					}
				}
				JOINT lclavicle
				{
					OFFSET 0.071702 0.114000 -0.018898
					CHANNELS 3 Zrotation Yrotation Xrotation
					JOINT lshoulder
					{
						OFFSET 0.122921 0.045205 -0.019046
						CHANNELS 3 Zrotation Yrotation Xrotation
						JOINT lelbow
						{
							OFFSET 0.255332 -0.015649 -0.022946
							CHANNELS 3 Zrotation Yrotation Xrotation
							JOINT lwrist
							{
								OFFSET 0.265709 0.012698 -0.007375
								CHANNELS 3 Zrotation Yrotation Xrotation
								End Site
								{
									OFFSET 0.000000 0.000000 0.000000
								}
							}
						}
					}
				}
				JOINT rclavicle
				{
					OFFSET -0.082954 0.112472 -0.023707
					CHANNELS 3 Zrotation Yrotation Xrotation
					JOINT rshoulder
					{
						OFFSET -0.113228 0.046853 -0.008472
						CHANNELS 3 Zrotation Yrotation Xrotation
						JOINT relbow
						{
							OFFSET -0.260127 -0.014369 -0.031269
							CHANNELS 3 Zrotation Yrotation Xrotation
							JOINT rwrist
							{
								OFFSET -0.269108 0.006794 -0.006027
								CHANNELS 3 Zrotation Yrotation Xrotation
								End Site
								{
									OFFSET 0.000000 0.000000 0.000000
								}
							}
						}
					}
				}
			}
		}
	}
}
MOTION
Frames: 17
Frame Time: 0.033333
-0.075278 0.322332 0.955789 54.344491 3.163562 100.180030 4.067535 8.772581 -33.431342 1.532759 17.644598 41.157077 -6.086785 9.975325 -20.507450 0.000000 -0.000000 0.000000 -3.838739 8.888799 -39.631142 1.162784 11.092377 26.366257 11.121939 7.798897 -1.032539 0.000000 -0.000000 0.000000 3.698431 -3.336298 58.542087 4.375418 -8.549113 15.436700 6.741471 -2.226571 -13.076613 -3.959764 0.310062 -3.012763 10.003633 -4.957981 -16.911140 -4.821443 -45.092338 -9.370130 0.570210 -20.317009 -24.705901 17.335178 0.654381 -37.683779 -44.240862 -3.011599 0.037812 7.606293 40.169887 -3.882076 6.817168 26.611447 -22.678791 -30.469634 17.675534 -44.048736 31.300224 7.701064 -24.413130 
-0.074108 0.325375 0.954159 53.456925 3.040525 99.764603 4.136443 8.564846 -32.985296 1.786616 18.651913 41.615894 -5.913139 10.032453 -20.998290 0.000000 -0.000000 0.000000 -3.986536 9.071121 -39.660890 1.276622 11.273359 26.924587 11.244993 8.516354 -1.008746 0.000000 -0.000000 0.000000 3.718798 -3.353754 58.523894 3.966673 -8.409969 16.613664 6.905323 -2.511718 -13.805794 -4.991221 -0.157263 -2.717498 9.476159 -4.196520 -17.283282 -4.493024 -48.798956 -8.832158 -0.693276 -24.588948 -24.104107 17.990170 -0.976822 -37.389965 -43.099257 -5.297360 -2.856596 6.107084 44.131136 -4.080766 5.055802 31.148147 -24.886701 -25.558601 12.653405 -41.986059 33.520600 7.306503 -24.677750 
-0.072364 0.327258 0.954661 52.558852 2.978813 99.045555 4.292565 8.847892 -31.925703 1.684136 19.434972 41.620900 -6.050414 9.772026 -21.324753 0.000000 -0.000000 0.000000 -3.967137 9.638478 -38.977093 1.131754 11.504559 26.934263 11.292660 8.956630 -0.992435 0.000000 -0.000000 0.000000 3.626345 -3.274721 58.040415 3.866821 -8.309550 18.041090 7.012405 -2.439967 -14.398308 -5.437907 -0.547052 -2.995843 9.258999 -4.515059 -16.835362 -4.107037 -51.811563 -8.730909 -1.353470 -27.883294 -23.173064 18.299222 -4.099757 -38.152740 -41.513442 -8.275123 -5.910718 4.637303 47.517626 -4.710316 4.136368 34.781757 -26.347769 -23.129195 9.354725 -43.923192 33.722143 8.172269 -26.691489 
-0.070236 0.328501 0.956306 51.983086 2.754136 98.291967 4.011233 8.791220 -30.454026 1.787236 19.881260 40.765390 -5.906305 9.492425 -21.332801 0.000000 -0.000000 0.000000 -3.966203 9.968663 -37.871603 0.827966 11.846833 26.473764 11.162467 9.171444 -1.005965 0.000000 -0.000000 0.000000 3.570734 -3.163479 56.831094 4.031215 -8.414156 19.676473 6.965019 -2.225598 -14.848223 -5.773376 -0.996552 -3.305550 8.884983 -5.062954 -16.621273 -1.838902 -53.380466 -10.220761 -2.249632 -31.186392 -22.398336 18.847459 -7.031130 -39.510450 -40.312089 -10.128207 -9.307110 4.240575 49.461027 -5.274001 3.338155 37.961434 -27.508522 -22.701774 9.268315 -45.756539 33.852221 8.180267 -27.023347 
-0.066908 0.329143 0.959070 51.689881 2.635413 96.911530 3.839361 9.185094 -28.232427 1.617306 19.932273 39.853397 -6.351958 9.127191 -21.441730 0.000000 -0.000000 0.000000 -3.456936 10.250345 -35.832760 0.149620 12.361891 25.997670 10.956146 9.208798 -1.439859 0.000000 -0.000000 0.000000 3.581289 -3.180755 55.850754 4.482019 -8.591994 20.654809 7.181628 -1.763944 -15.414577 -6.246441 -0.960304 -3.016319 8.507595 -5.644258 -16.277613 0.637218 -54.310696 -11.924664 -2.558455 -32.879674 -21.870846 19.025079 -9.262959 -41.493458 -38.812803 -11.992331 -12.003708 3.889538 50.655574 -5.707367 3.182619 39.341664 -27.819939 -22.639802 11.057828 -47.493380 33.696076 9.078634 -28.579344 
-0.063387 0.329543 0.962453 51.862936 2.528283 95.650795 3.486677 9.273151 -26.125093 1.326140 19.333698 38.695734 -6.410574 9.131925 -21.452260 0.000000 -0.000000 0.000000 -3.423778 10.465075 -33.733507 -0.043210 12.503895 25.272790 10.978812 8.816599 -1.569643 0.000000 -0.000000 0.000000 3.853649 -3.378778 54.298013 5.085800 -8.767540 20.645557 7.362247 -1.545877 -15.476459 -6.073667 -0.793341 -2.867459 8.293390 -5.932363 -15.960986 1.937719 -54.349563 -12.677562 -1.111831 -33.269379 -22.084970 18.956580 -11.928527 -43.262775 -37.766143 -13.690367 -14.537708 4.253593 50.702294 -5.745126 3.056997 40.056426 -27.557617 -23.418620 13.540521 -49.771801 31.973613 10.051052 -30.933035 
-0.058743 0.329064 0.966734 52.005081 2.426793 94.142009 3.064977 9.537004 -23.561672 0.996301 18.389796 37.290540 -6.514468 9.583791 -21.446021 0.000000 -0.000000 0.000000 -3.213365 10.431544 -31.157901 -0.178842 12.907227 24.428655 10.997054 8.432110 -1.670821 0.000000 -0.000000 0.000000 3.961721 -3.591956 52.491487 5.611197 -8.912654 19.958188 7.580981 -1.157296 -14.856237 -5.656753 -1.199167 -2.956130 8.508046 -5.860440 -16.206065 2.780787 -53.813669 -13.457015 0.989910 -32.218748 -22.634923 19.268614 -15.300187 -45.087855 -36.912197 -14.488428 -16.066270 4.227722 50.643990 -6.049054 2.603286 39.430185 -27.445513 -24.598779 16.024229 -52.846879 30.714220 11.075286 -32.514419 
-0.053754 0.328014 0.971235 52.393336 2.260845 92.635271 2.634338 9.426098 -20.903800 0.576255 17.398566 35.754521 -6.359268 10.372465 -21.308589 0.000000 -0.000000 0.000000 -3.039031 10.096185 -28.470279 -0.089455 13.557103 23.519790 10.984059 7.619655 -2.113946 0.000000 -0.000000 0.000000 4.186674 -3.619020 49.971557 6.228941 -8.863346 19.632828 7.693723 -1.068903 -14.109312 -4.644891 -1.470373 -4.854727 8.613349 -5.850561 -15.679900 3.214754 -52.207931 -14.410567 3.409994 -31.550016 -23.155488 19.823336 -19.405222 -47.523377 -34.304947 -15.783904 -18.829785 4.268412 49.367886 -7.133930 1.951053 38.404591 -25.968494 -26.618449 18.949748 -55.796480 29.022153 12.103590 -33.741094 
-0.047797 0.326097 0.976123 52.873174 2.147037 91.231076 2.327279 9.194929 -18.080120 0.031508 16.378581 33.882634 -6.145848 11.354672 -21.220458 0.000000 -0.000000 0.000000 -2.853341 9.738793 -25.884214 0.194450 14.471837 22.833170 10.971033 6.562585 -2.549813 0.000000 -0.000000 0.000000 4.427566 -3.575306 47.004742 6.894094 -8.685041 18.707424 7.830134 -1.029544 -12.936925 -3.486877 -2.149228 -7.100555 8.658148 -5.617608 -15.301453 2.839937 -50.329076 -14.679349 5.496440 -30.700171 -22.394366 21.963639 -24.757152 -50.742538 -29.723379 -17.088836 -21.298460 4.627604 47.834469 -8.125784 0.679538 36.632143 -24.217102 -28.496308 22.852964 -59.096286 27.673723 13.300905 -35.902018 
-0.040525 0.321938 0.981410 53.377456 2.039153 89.765791 2.165177 9.289422 -14.985765 -0.493270 15.253804 31.990181 -6.229585 12.060522 -21.251047 0.000000 -0.000000 0.000000 -2.699089 9.598551 -23.017310 0.266485 14.839051 22.018429 10.890996 5.816677 -3.155235 0.000000 -0.000000 0.000000 4.354284 -3.525457 43.824476 7.525497 -8.460030 17.636906 7.895544 -0.984180 -11.828794 -2.226689 -2.411386 -9.105028 8.636551 -5.695979 -15.331539 2.610513 -48.034789 -14.923993 7.087886 -30.034935 -20.816722 25.430330 -30.438569 -53.628253 -25.397436 -18.396681 -23.951513 5.029066 45.959437 -9.296095 -0.527818 35.594782 -22.571341 -30.592357 26.401415 -61.579154 26.292873 13.834903 -38.171954 
-0.032486 0.317089 0.985659 54.329950 1.899224 88.579114 1.834291 8.852341 -12.300793 -0.666694 14.078397 30.309966 -6.152241 12.756568 -21.079440 0.000000 -0.000000 0.000000 -2.799794 9.323599 -20.490266 0.530391 14.973820 21.417394 10.913255 4.961639 -3.716244 0.000000 -0.000000 0.000000 4.347830 -3.546991 40.079167 8.164722 -8.525648 16.501223 7.735957 -1.178707 -10.473452 -0.818762 -1.840386 -12.085891 8.350639 -6.139298 -14.945040 3.715959 -45.546730 -15.939622 8.536553 -30.112405 -20.159581 29.211610 -34.941674 -56.101459 -22.664024 -19.965305 -25.465457 4.690918 43.656954 -11.066355 -0.905887 35.737017 -21.052494 -34.363835 29.191068 -64.306131 26.637065 15.627891 -39.292358 
-0.024018 0.311038 0.989027 55.427426 2.011910 87.673786 1.705489 8.683294 -10.091709 -0.632352 12.576393 28.952440 -6.165382 13.286313 -20.795354 0.000000 -0.000000 0.000000 -2.604832 8.961411 -18.280436 0.757721 15.026341 20.969994 10.701056 4.179001 -4.395729 0.000000 -0.000000 0.000000 4.312540 -3.488563 36.197034 8.764146 -8.668129 15.239556 7.761147 -1.351071 -9.455023 0.048730 -1.608303 -14.562580 8.382991 -6.782622 -14.886981 5.189411 -44.085224 -17.000561 10.220491 -29.624382 -19.829590 33.269837 -38.288413 -58.847436 -20.333350 -20.257263 -25.585773 3.579909 42.114443 -13.013669 -1.401263 35.285210 -20.184745 -37.748150 31.965862 -66.541261 26.767497 16.225622 -40.444712 
-0.015582 0.304723 0.992054 56.515637 2.120591 86.979713 1.600622 8.099063 -8.040338 -0.537628 11.394484 27.441513 -6.024622 14.023880 -20.430347 0.000000 -0.000000 0.000000 -2.452986 8.797720 -16.257535 0.904591 14.856300 20.456539 10.415572 3.440529 -5.034378 0.000000 -0.000000 0.000000 4.141330 -3.599614 32.856131 9.107942 -8.931153 13.352089 7.656294 -1.540290 -8.440861 0.958798 -1.153732 -17.580010 8.123006 -7.295077 -14.631067 7.408009 -42.457157 -18.578691 11.602893 -29.540274 -20.197885 37.692293 -41.006105 -60.754084 -21.013965 -21.009979 -26.198567 1.770648 40.807065 -15.200733 -1.077945 35.868589 -19.611250 -41.976227 33.308917 -68.931645 28.088303 17.460945 -41.782769 
-0.007866 0.297828 0.994093 57.150844 2.425827 86.610973 1.916500 8.057469 -6.445143 -0.439085 10.458306 26.259664 -6.205267 14.316332 -20.115535 0.000000 -0.000000 0.000000 -1.904214 8.759286 -14.587007 0.874692 15.026586 19.691855 9.984816 2.830824 -5.463167 0.000000 -0.000000 0.000000 3.788574 -3.530611 29.274620 9.358825 -8.944478 12.053355 7.549283 -1.671693 -7.656770 1.377759 -0.569694 -20.417545 7.773827 -7.939921 -14.560754 9.774619 -41.113985 -20.057758 13.349245 -29.601031 -21.653398 41.606085 -42.673390 -62.558541 -21.332875 -22.295261 -26.995409 0.021753 39.748401 -16.777751 -1.595101 36.644404 -20.216607 -46.111492 34.510020 -70.959176 28.255881 18.823532 -43.701025 
-0.001624 0.291558 0.995724 57.462258 2.616448 86.765753 2.128449 7.595461 -5.458212 -0.390987 10.090798 24.979142 -6.176047 14.915161 -19.644608 0.000000 -0.000000 0.000000 -1.589209 8.929522 -13.725162 0.967114 15.409981 19.082558 9.840725 2.213353 -5.383369 0.000000 -0.000000 0.000000 3.210890 -3.293869 25.708870 9.477954 -8.965684 10.815508 7.341968 -1.668705 -7.102084 1.529985 0.087063 -22.719474 7.279739 -8.567081 -14.778826 11.515374 -40.112874 -21.174476 15.401717 -30.034605 -23.046212 45.809855 -43.512997 -65.824330 -19.444335 -22.146582 -27.911052 -1.054843 38.838417 -18.036943 -2.675885 37.719178 -20.676930 -49.932160 35.562221 -73.245371 26.246500 19.521869 -44.793108 
0.005104 0.284772 0.997101 57.285491 2.824712 86.727840 2.504084 7.920306 -4.116878 -0.134807 9.994224 23.682870 -6.442546 14.699460 -19.202295 0.000000 -0.000000 0.000000 -1.024668 8.890326 -12.655036 0.647651 15.501113 18.241384 9.655233 2.556520 -5.537618 0.000000 -0.000000 0.000000 2.672236 -3.258545 22.778079 9.235685 -8.900572 9.287867 7.067740 -1.743483 -6.469529 1.466052 0.834602 -24.446469 7.016644 -9.043217 -15.091355 13.501611 -39.022136 -22.596458 16.127371 -30.669681 -24.609187 50.616650 -43.344022 -68.708216 -20.361104 -22.852999 -27.616299 -2.615195 38.026087 -19.597779 -2.724384 39.535584 -21.717560 -53.090296 35.826646 -74.139965 26.561540 20.441410 -45.044421 
0.010302 0.278106 0.998681 56.937234 3.041097 86.682587 2.956418 8.129765 -2.933577 0.004632 9.972799 22.622272 -6.799849 14.645448 -18.963833 0.000000 -0.000000 0.000000 -0.431401 9.106748 -11.971460 0.565064 15.607455 18.003322 9.590076 2.553392 -5.641608 0.000000 -0.000000 0.000000 2.152451 -3.255278 19.955180 8.816642 -8.921338 8.421492 6.696472 -2.011823 -6.078758 1.409345 1.433007 -25.706571 6.843653 -9.049885 -15.488073 14.921366 -38.506082 -23.315357 17.005349 -30.731405 -25.736592 56.474247 -42.594128 -72.125716 -20.053537 -22.736680 -26.269922 -4.190295 37.696324 -21.062912 -2.936861 40.756059 -22.421866 -56.617467 36.067083 -77.731780 25.716968 21.563131 -48.237126 
